<svg width="100" height="100" viewBox="0 0 100 100" fill="none" xmlns="http://www.w3.org/2000/svg">
<rect width="100" height="100" fill="#0A84FF"/>
<path fill-rule="evenodd" clip-rule="evenodd" d="M40.9559 32.5C42.8804 29.1667 40.4748 25 36.6258 25L23.0075 25C19.1585 25 16.7528 29.1667 18.6773 32.5L25.4865 44.2938C27.411 47.6272 32.2223 47.6272 34.1468 44.2938L40.9559 32.5ZM41.2446 55C37.3956 55 34.99 50.8333 36.9145 47.5L45.1728 33.1962C47.0973 29.8628 51.9086 29.8628 53.8331 33.1961L62.0914 47.5C64.0159 50.8333 61.6103 55 57.7613 55H41.2446ZM54.1844 79C52.2599 82.3333 47.4486 82.3333 45.5241 79L38.3072 66.5C36.3827 63.1667 38.7884 59 42.6374 59L57.0711 59C60.9201 59 63.3258 63.1667 61.4013 66.5L54.1844 79ZM65.2104 44.9023C67.1349 48.2357 71.9462 48.2357 73.8707 44.9023L81.0312 32.5C82.9557 29.1667 80.55 25 76.701 25L62.3801 25C58.5311 25 56.1254 29.1667 58.0499 32.5L65.2104 44.9023Z" fill="white"/>
</svg>
